<?xml version="1.0" encoding="utf-8"?>
<svg version="1.1" id="Layer_1" xmlns="http://www.w3.org/2000/svg" xmlns:xlink="http://www.w3.org/1999/xlink" x="0px" y="0px" viewBox="0 0 186.3 209.7" style="enable-background:new 0 0 186.3 209.7;" xml:space="preserve">
<style type="text/css">
	.cabelo{fill:#A61D00;}
	.pele{fill:#F68200;}
	.forma{fill:#A55200;}
	.sombra{opacity:0.15;}
</style>
<path class="cabelo" d="M170.6,144.3c-1.4-0.1-2,9.4-4.7,9.7c-3.8,0.5-10-18.1-14-37.7c-9.8-47.7,1-62.5-12.3-77.7 c-3.2-3.6-7-6.3-11.1-8.4c-0.2-0.4-0.4-0.8-0.7-1.3c-6.6-10.8-29.3-8.6-42.7-7.1c-11.7-0.8-25.1-0.3-31,6.5c-4.9,2.1-9.3,5.1-13,9.3 c-13.4,15.2-2.5,30-12.3,77.7c-4,19.6-10.2,38.1-14,37.7c-2.6-0.3-3.2-9.8-4.7-9.7c-1.3,0.1-3.1,8.3-0.3,15.7 c3.6,9.6,13.8,13.6,17.3,15c23.6,9.4,48-6.9,50.5-8.7c2.2-1.5,4-3,5.6-4.3c6.2,2.3,14,4.9,23.4,8c30.6,10,40.2,8.6,47,6 c2.9-1.1,13.7-5.1,17.3-15C173.7,152.6,172,144.5,170.6,144.3z"/>
<path class="pele" d="M92.2,179.7L92.2,179.7C80.3,166,48.1,166,48.1,140.4l-4-79.1c0-25.5,21.6-46.3,48.1-46.3h0 c26.4,0,48.1,20.8,48.1,46.3l-4,79.1C136.3,165.8,106,166,92.2,179.7z"/>
<path class="pele" d="M60.6,161.3c0,0,9.8,13.4,4.9,21.6c-1.6,2.6-4.5,2.3-4.9,4.1c-1,4.5,13.3,14.8,28.9,15.5c0.8,0,1.5,0,2.3,0 c16.8-0.2,32.1-11,31.2-15.5c-0.4-1.8-3.1-1.3-4.9-4.1c-4.4-7,4.9-21.6,4.9-21.6l0,0"/>
<polygon class="forma" points="121.8,163 95.7,175 89,175 62.6,163 89.2,180 96,180 "/>
<path class="cabelo" d="M116.7,37c-51.4,29.7-71.5,35.2-76,29.7c-1.8-2.2-2.6-8-5-8c-2.9-0.1-4.5,8.5-6,8.3c-2-0.3-5.1-16,0-29 C38.2,16.1,68.8,4.5,94,6.3c4.2,0.3,42.1,3.6,52.7,31.3c1.9,4.9,4.5,15.5,1,27c-1.4,4.5-3.1,10-6.3,10.7 C137.3,76.1,130.2,69.5,116.7,37z"/>
<polygon class="forma" points="93,128.3 88,126.3 93,132 98,126.3 "/>
<path class="sombra" d="M170.6,144.3c-1.4-0.1-2,9.4-4.7,9.7c-3.8,0.5-10-18.1-14-37.7c-4.8-23.2-4.7-38.5-4.8-50 c0.2-0.6,0.4-1.1,0.5-1.7c3.5-11.5,0.9-22.1-1-27C136.1,10,98.2,6.6,94,6.3c-0.3,0-0.7,0-1-0.1v196.2c16.3-0.7,30.9-11,30-15.5 c-0.4-1.8-3.1-1.3-4.9-4.1c-1.7-2.8-1.3-6.7-0.2-10.4c21.9,6.2,29.9,4.8,35.8,2.6c2.9-1.1,13.7-5.1,17.3-15 C173.7,152.6,172,144.5,170.6,144.3z"/>
</svg>