<?xml version="1.0" encoding="utf-8"?>
<svg version="1.1" id="Layer_1" xmlns="http://www.w3.org/2000/svg" xmlns:xlink="http://www.w3.org/1999/xlink" x="0px" y="0px" viewBox="0 0 111.3 209.7" style="enable-background:new 0 0 111.3 209.7;" xml:space="preserve">
<style type="text/css">
	.pele{fill:#F68200;}
	.cabelo{fill:#A61D00;}
	.forma{fill:#A55200;}
	.sombra{opacity:0.15;}
</style>
<path class="pele" d="M56.2,176.8L56.2,176.8C8.1,156.1,8.1,156.1,8.1,130.5V51.3C8.1,25.8,29.7,5,56.2,5h0 c26.4,0,48.1,20.8,48.1,46.3v79.1C104.3,155.9,104.3,155.9,56.2,176.8z"/>
<path class="pele" d="M24.6,162.3c0,0,9.8,13.4,4.9,21.6c-1.6,2.6-4.5,2.3-4.9,4.1c-1,4.5,13.3,14.8,28.9,15.5 C71.2,204.3,88,192.8,87,188c-0.4-1.8-3.1-1.3-4.9-4.1c-4.4-7,4.9-21.6,4.9-21.6l0,0"/>
<path class="cabelo" d="M104.3,53L78.3,28.7L8.1,53c0,0,0-48.1,48.1-48.1C104.3,4.9,104.3,53,104.3,53z"/>
<polygon class="forma" points="24.6,162.3 55.8,182.9 87,162.3 56.2,176.7 "/>
<polygon class="forma" points="56,115.3 51,113.3 56,119 61,113.3 "/>
<g class="sombra">
<path d="M56.1,5L56.1,5C56.1,5,56.1,5,56.1,5C56.1,5,56.1,5,56.1,5C56.2,5,56.1,5,56.1,5z"/>
<path d="M97.9,28.5C91.8,16.7,79.8,5,56.1,5c0,0-0.1,0-0.1,0v198.5c16.7-0.3,31.9-11,31-15.5c-0.4-1.8-3.1-1.3-4.9-4.1 c-3.9-6.2,2.7-18.2,4.4-21c17.6-9.1,17.5-14.3,17.5-32.5V51.2C104,43,101.8,35.2,97.9,28.5z"/>
</g>
</svg>