<?xml version="1.0" encoding="UTF-8" standalone="no"?>
<svg xmlns:dc="http://purl.org/dc/elements/1.1/" xmlns:cc="http://creativecommons.org/ns#" xmlns:rdf="http://www.w3.org/1999/02/22-rdf-syntax-ns#" xmlns:svg="http://www.w3.org/2000/svg" xmlns="http://www.w3.org/2000/svg" xmlns:sodipodi="http://sodipodi.sourceforge.net/DTD/sodipodi-0.dtd" xmlns:inkscape="http://www.inkscape.org/namespaces/inkscape" width="100" height="100" id="svg3066" version="1.1" inkscape:version="0.48.4 r9939" sodipodi:docname="New document 4">
<defs id="defs3068" />
<sodipodi:namedview id="base" pagecolor="#ffffff" bordercolor="#666666" borderopacity="1.0" inkscape:pageopacity="0.0" inkscape:pageshadow="2" inkscape:zoom="2.8" inkscape:cx="130.16151" inkscape:cy="31.479953" inkscape:document-units="px" inkscape:current-layer="layer1" showgrid="false" inkscape:window-width="1325" inkscape:window-height="744" inkscape:window-x="41" inkscape:window-y="24" inkscape:window-maximized="1" />
<metadata id="metadata3071"><rdf:RDF><cc:Work rdf:about=""><dc:format>image/svg+xml</dc:format><dc:type rdf:resource="http://purl.org/dc/dcmitype/StillImage" /><dc:title></dc:title></cc:Work></rdf:RDF></metadata>
<g inkscape:label="Layer 1" inkscape:groupmode="layer" id="layer1" transform="translate(0,-952.36218)">
<path sodipodi:type="arc" style="fill:#f68200;fill-opacity:1;fill-rule:nonzero;stroke:none" id="path3074" sodipodi:cx="49.82143" sodipodi:cy="50.17857" sodipodi:rx="48.75" sodipodi:ry="48.75" d="m 98.57143,50.17857 a 48.75,48.75 0 1 1 -97.4999998,0 48.75,48.75 0 1 1 97.4999998,0 z" transform="translate(0,952.36218)" />
<path sodipodi:type="arc" style="fill:#a61d00;fill-opacity:1;fill-rule:nonzero;stroke:none" id="path4356" sodipodi:cx="47.32143" sodipodi:cy="49.464287" sodipodi:rx="42.32143" sodipodi:ry="42.32143" d="m 89.64286,49.464287 a 42.32143,42.32143 0 1 1 -84.64286,0 42.32143,42.32143 0 1 1 84.64286,0 z" transform="matrix(0.97046414,0,0,0.97046414,4.1476793,954.57315)" />
<path sodipodi:type="arc" style="fill:#f68200;fill-opacity:1;fill-rule:nonzero;stroke:none" id="path4358" sodipodi:cx="37.857143" sodipodi:cy="36.07143" sodipodi:rx="33.214287" sodipodi:ry="33.214287" d="m 71.07143,36.07143 a 33.214287,33.214287 0 1 1 -66.4285734,0 33.214287,33.214287 0 1 1 66.4285734,0 z" transform="matrix(0.97311826,0,0,0.97311826,13.410522,967.15327)" />
<path sodipodi:type="arc" style="fill:#a61d00;fill-opacity:1;fill-rule:nonzero;stroke:none" id="path4360" sodipodi:cx="51.07143" sodipodi:cy="48.57143" sodipodi:rx="23.571428" sodipodi:ry="23.571428" d="m 74.642859,48.57143 a 23.571428,23.571428 0 1 1 -47.142857,0 23.571428,23.571428 0 1 1 47.142857,0 z" transform="matrix(1.0075758,0,0,1.0075758,-1.3511906,953.24422)" />
<g transform="matrix(0.52076234,0,0,0.52076234,33.605037,984.79428)" id="g3051" style="fill:#f68200;fill-opacity:1">
<polygon id="polygon3039" points="19.1,10.3 19.6,23.9 35.3,26.9 43.8,14.7 33.5,5.1 " style="fill:#f68200;fill-opacity:1" />
<polygon id="polygon3041" points="53.3,41.7 39.9,40.1 29.8,51.4 37.6,59.5 51.1,53.7 " style="fill:#f68200;fill-opacity:1" />
<path inkscape:connector-curvature="0" id="path3043" d="m 2.666,43.056 0.171,0.209 c 4.605,11.7 16,20.1 29.4,20.073 17.448,0 31.592,-14.144 31.592,-31.592 0,-17.448 -14.144,-31.592 -31.592,-31.592 -17.448,0 -31.592,14.145 -31.592,31.592 0,3.9 0.7,7.6 2,11.1 l 0.021,0.21 z M 2.309,31.746 c 0,-3.99 0.791,-7.797 2.214,-11.282 l 7.473,-9.272 1.937,-3.106 c 5.069,-3.934 11.424,-6.285 18.322,-6.285 0.166,0 0.3,0 0.5,0.012 l 3.342,1.231 7.366,0.94 c 4.717,1.9 8.8,5 12,8.875 l -1.226,5.341 4.84,13.6 3.092,0.784 C 61.694,48.687 48.46,61.64 32.246,61.64 24.173,61.64 16.842,58.424 11.451,53.212 L 17.263,48.22 11.716,33.923 3.038,30.934 2.837,37.309 C 2.499,35.5 2.3,33.7 2.3,31.746 z" style="fill:#f68200;fill-opacity:1" /></g></g></svg>