<?xml version="1.0" encoding="utf-8"?>
<svg version="1.1" id="Layer_1" xmlns="http://www.w3.org/2000/svg" xmlns:xlink="http://www.w3.org/1999/xlink" x="0px" y="0px" viewBox="0 0 509 160" style="enable-background:new 0 0 509 160;" xml:space="preserve">
<style type="text/css">
	.laranja{fill:#f68200;}
	.vermelho{fill:#a61d00;}
</style>
<path class="laranja" d="M80.8,1.8L80.8,1.8c-0.1,0-0.1,0-0.2,0C37.2,1.8,2,37,2,80.4S37.2,159,80.6,159c0.1,0,0.1,0,0.2,0v0H507V1.8 H80.8z"/>
<path class="vermelho" d="M79,13.3L79,13.3c-35.9,1.8-64.6,31.5-64.6,67.8c0,36.4,28.6,66,64.6,67.8v0.1h192V13.3H79z"/>
<path class="laranja" d="M83,26.6c30.6,0,55.4,24.8,55.4,55.4s-24.8,55.4-55.4,55.4c-30.6,0-55.4-24.8-55.4-55.4S52.4,26.6,83,26.6z"/>
<path class="vermelho" d="M82.8,37.1c24.5,0,44.3,19.8,44.3,44.3c0,24.5-19.8,44.3-44.3,44.3c-24.5,0-44.3-19.8-44.3-44.3 C38.5,56.9,58.4,37.1,82.8,37.1z"/>
<path class="laranja" d="M86.8,76.1l8.7-12.5l-10.6-9.9l-14.8,5.3l0.5,14L86.8,76.1z"/>
<path class="laranja" d="M81.2,101.4l8,8.3l13.9-6l2.3-12.3l-13.8-1.7L81.2,101.4z"/>
<path class="laranja" d="M53.2,92.8l0.2,0.2c4.7,12.1,16.5,20.7,30.3,20.7c18,0,32.5-14.6,32.5-32.5c0-18-14.6-32.5-32.5-32.5 S51.1,63.2,51.1,81.1c0,4,0.7,7.9,2.1,11.4L53.2,92.8z M52.8,81.1c0-4.1,0.8-8,2.3-11.6l7.7-9.5l2-3.2c5.2-4,11.8-6.5,18.9-6.5 c0.2,0,0.3,0,0.5,0l3.4,1.3l7.6,1c4.9,2,9.1,5.1,12.4,9.1l-1.3,5.5l5,14.1l3.2,0.8C114,98.6,100.4,112,83.7,112 c-8.3,0-15.9-3.3-21.4-8.7l6-5.1l-5.7-14.7l-8.9-3.1l-0.2,6.6C53,85,52.8,83.1,52.8,81.1z"/>
<g>
<path class="laranja" d="M144.6,135.8V26h31.9v13.2h-16v16.2H176v13.2h-15.4v67.1H144.6z"/>
<path class="laranja" d="M210.4,52.6h14.3v83.2h-13.3v-5.4c-1,2-2.5,3.6-4.6,4.6c-2,1-4.8,1.5-8.2,1.5c-2.8,0-5.1-0.3-7-0.8 c-1.9-0.5-3.4-1.4-4.5-2.7c-1.1-1.3-1.9-3-2.4-5.2c-0.5-2.2-0.7-4.9-0.7-8.3V52.6h14.2v65.6c0,2,0.4,3.5,1.1,4.4 c0.7,0.9,2.3,1.3,4.7,1.3c1.9,0,3.2-0.4,4.2-1.2c0.9-0.8,1.7-1.8,2.2-3.1V52.6z"/>
<path class="laranja" d="M261.1,64.1h-9.7v52.2c0,2.9,0.5,4.8,1.4,5.8c0.9,1,2.8,1.5,5.6,1.5h2.6v12.1h-3.6c-3.8,0-7-0.3-9.6-1 c-2.6-0.7-4.7-1.8-6.2-3.2c-1.6-1.4-2.7-3.3-3.3-5.5c-0.6-2.2-1-4.9-1-7.9v-54h-5.1V52.6h5.1V27.3h14.2v25.3h9.7V64.1z"/>
</g>
<g>
<path class="vermelho" d="M312.9,73.8c1.5,0.4,2.8,0.9,4,1.5c1.2,0.6,2.2,1.6,3.1,3c0.9,1.3,1.5,3.1,2,5.2c0.5,2.1,0.7,4.9,0.7,8.2v23.2 c0,4.9-0.3,8.8-0.9,11.8c-0.6,3-1.8,5.2-3.5,6.8c-1.7,1.6-4.1,2.6-7,3.1c-3,0.5-6.8,0.8-11.5,0.8h-22.8V27.7h22.8 c4.7,0,8.6,0.3,11.5,0.8c3,0.5,5.3,1.6,7,3.1c1.7,1.6,2.9,3.8,3.5,6.7c0.6,2.9,0.9,6.8,0.9,11.7v8.2c0,2.9-0.3,5.2-1,7.1 c-0.7,1.9-1.5,3.3-2.5,4.4c-1,1.1-2,1.9-3.2,2.5c-1.2,0.6-2.2,0.9-3.1,1V73.8z M293.1,67.4h7.2c2.6,0,4.3-0.5,5.1-1.5 c0.8-1,1.3-2.9,1.3-5.6V50.1c0-1.7-0.1-3.1-0.2-4.2c-0.1-1.1-0.4-2-0.9-2.6c-0.5-0.6-1.2-1.1-2.1-1.3c-0.9-0.2-2.1-0.3-3.6-0.3 h-6.8V67.4z M293.1,123.7h6.8c1.5,0,2.7-0.1,3.5-0.3c0.9-0.2,1.5-0.6,2-1.3c0.5-0.6,0.8-1.5,1-2.6c0.2-1.2,0.3-2.7,0.3-4.5V88.1 c0-3.1-0.4-5.2-1.1-6.3c-0.7-1.2-2.5-1.7-5.3-1.7h-7.2V123.7z"/>
<path class="vermelho" d="M372.2,121.2c0,3.9-0.3,7-0.8,9.3c-0.6,2.3-1.6,4.1-3,5.3c-1.4,1.2-3.5,2.1-6,2.4c-2.6,0.4-5.9,0.6-10,0.6 c-4.1,0-7.4-0.2-10-0.6c-2.6-0.4-4.6-1.2-6.1-2.4c-1.5-1.3-2.5-3-3-5.3c-0.5-2.3-0.8-5.4-0.8-9.3V70.5c0-3.9,0.3-7,0.8-9.3 c0.5-2.3,1.5-4.1,3-5.3c1.5-1.3,3.5-2.1,6.1-2.4c2.6-0.4,5.9-0.6,10-0.6c4.1,0,7.4,0.2,10,0.6c2.6,0.4,4.6,1.2,6,2.4 c1.4,1.2,2.4,3,3,5.3c0.6,2.3,0.8,5.4,0.8,9.3V121.2z M358.5,72c0-2.4-0.4-4-1.1-4.7c-0.7-0.7-2.4-1.1-5-1.1c-2.6,0-4.3,0.4-5,1.2 c-0.7,0.8-1.1,2.3-1.1,4.7v47.8c0,2.4,0.4,4,1.1,4.8c0.7,0.8,2.4,1.2,5,1.2c2.7,0,4.4-0.4,5.1-1.3c0.7-0.9,1-2.4,1-4.7V72z"/>
<path class="vermelho" d="M397.7,137.4h-14.2V27.7h14.2V137.4z"/>
<path class="vermelho" d="M426.4,138.8c-3.5,0-6.4-0.2-8.7-0.6c-2.3-0.4-4.1-1.1-5.3-2.2c-1.3-1.1-2.2-2.7-2.7-4.9 c-0.5-2.1-0.8-5-0.8-8.5v-20.1c0-5,0.9-8.7,2.8-11c1.9-2.3,5.2-3.5,9.8-3.5h2.6c3.1,0,5.4,0.1,6.7,0.3c1.3,0.2,2.3,0.5,2.9,0.9 V72.1c0-3.1-0.4-5-1.2-5.9c-0.8-0.9-2.5-1.3-5.1-1.3c-2.5,0-4.1,0.5-4.7,1.5c-0.6,1-1,2.9-1,5.7v8.2h-12.9v-9.9 c0-3.9,0.3-7,0.8-9.3c0.5-2.3,1.5-4.1,2.8-5.3c1.4-1.3,3.3-2.1,5.7-2.4c2.4-0.4,5.5-0.6,9.3-0.6c4.2,0,7.5,0.2,10.1,0.6 c2.6,0.4,4.6,1.2,6,2.4c1.4,1.2,2.4,3,3,5.3c0.6,2.3,0.8,5.4,0.8,9.3v66.9c-1.7,0.5-4.2,0.8-7.6,1 C436.5,138.7,432,138.8,426.4,138.8z M427.5,127.1c2,0,3.5,0,4.4-0.1c0.9,0,1.5-0.1,1.8-0.2V99.6c-0.6-0.4-1.4-0.6-2.4-0.7 c-0.9-0.1-2.2-0.1-3.8-0.1c-2.7,0-4.3,0.5-4.9,1.5c-0.6,1-0.9,3-0.9,5.8v13.1c0,1.6,0,2.9,0.1,3.9c0.1,1,0.3,1.8,0.7,2.4 c0.4,0.6,0.9,1,1.7,1.3C425.2,127,426.2,127.1,427.5,127.1z"/>
<path class="vermelho" d="M497.9,121.2c0,3.9-0.3,7-0.8,9.3c-0.6,2.3-1.6,4.1-3,5.3c-1.4,1.2-3.5,2.1-6,2.4c-2.6,0.4-5.9,0.6-10,0.6 c-4.1,0-7.4-0.2-10-0.6c-2.6-0.4-4.6-1.2-6.1-2.4c-1.5-1.3-2.5-3-3-5.3c-0.5-2.3-0.8-5.4-0.8-9.3V70.5c0-3.9,0.3-7,0.8-9.3 c0.5-2.3,1.5-4.1,3-5.3c1.5-1.3,3.5-2.1,6.1-2.4c2.6-0.4,5.9-0.6,10-0.6c4.1,0,7.4,0.2,10,0.6c2.6,0.4,4.6,1.2,6,2.4 c1.4,1.2,2.4,3,3,5.3c0.6,2.3,0.8,5.4,0.8,9.3V121.2z M484.2,72c0-2.4-0.4-4-1.1-4.7c-0.7-0.7-2.4-1.1-5-1.1c-2.6,0-4.3,0.4-5,1.2 c-0.7,0.8-1.1,2.3-1.1,4.7v47.8c0,2.4,0.4,4,1.1,4.8c0.7,0.8,2.4,1.2,5,1.2c2.7,0,4.4-0.4,5.1-1.3c0.7-0.9,1-2.4,1-4.7V72z"/>
</g>
<rect x="408.9" y="37.1" class="vermelho" width="36.6" height="9.4"/>
</svg>
