<?xml version="1.0" encoding="UTF-8" standalone="no"?>
<!-- Generator: Adobe Illustrator 16.0.4, SVG Export Plug-In . SVG Version: 6.00 Build 0)  -->

<svg
   xmlns:dc="http://purl.org/dc/elements/1.1/"
   xmlns:cc="http://creativecommons.org/ns#"
   xmlns:rdf="http://www.w3.org/1999/02/22-rdf-syntax-ns#"
   xmlns:svg="http://www.w3.org/2000/svg"
   xmlns="http://www.w3.org/2000/svg"
   xmlns:sodipodi="http://sodipodi.sourceforge.net/DTD/sodipodi-0.dtd"
   xmlns:inkscape="http://www.inkscape.org/namespaces/inkscape"
   version="1.1"
   id="Capa_1"
   x="0px"
   y="0px"
   width="100"
   height="100"
   viewBox="0 0 100 100"
   enable-background="new 0 0 216 146"
   xml:space="preserve"
   inkscape:version="0.48.4 r9939"
   sodipodi:docname="moderado.svg"><metadata
     id="metadata3092"><rdf:RDF><cc:Work
         rdf:about=""><dc:format>image/svg+xml</dc:format><dc:type
           rdf:resource="http://purl.org/dc/dcmitype/StillImage" /></cc:Work></rdf:RDF></metadata><defs
     id="defs3090" /><sodipodi:namedview
     pagecolor="#ffffff"
     bordercolor="#666666"
     borderopacity="1"
     objecttolerance="10"
     gridtolerance="10"
     guidetolerance="10"
     inkscape:pageopacity="0"
     inkscape:pageshadow="2"
     inkscape:window-width="1325"
     inkscape:window-height="744"
     id="namedview3088"
     showgrid="false"
     inkscape:zoom="2.7993679"
     inkscape:cx="44.001955"
     inkscape:cy="60.011743"
     inkscape:window-x="41"
     inkscape:window-y="24"
     inkscape:window-maximized="1"
     inkscape:current-layer="Capa_1" /><path
     d="m 85.668026,68.124731 c 0.825892,0.883166 1.566224,1.651782 2.218169,2.304435 0.653359,0.652652 1.354801,1.286212 2.103619,1.900681 0.748817,0.613761 1.296819,0.922056 1.641883,0.922056 0.653359,0 1.92048,-0.940441 3.802069,-2.822737 1.882297,-1.88159 2.822738,-3.148711 2.822738,-3.80207 0,-0.307588 -0.547294,-1.094589 -1.641883,-2.362417 C 95.520739,62.998265 94.11927,61.50063 92.409505,59.771774 90.700448,58.042918 89.039473,56.39255 87.426581,54.817134 85.812982,53.241718 84.23898,51.715799 82.701747,50.236549 81.165929,48.758005 80.282056,47.90383 80.051542,47.673316 79.667587,47.289361 79.22565,47.097737 78.727146,47.097737 c -0.653359,0 -1.921187,0.940442 -3.80207,2.822738 -1.882296,1.880883 -2.822738,3.148711 -2.822738,3.80207 0,0.345064 0.306881,0.892359 0.92135,1.641883 0.614469,0.748818 1.248736,1.449552 1.901388,2.102912 0.651945,0.652652 1.421269,1.392277 2.304435,2.218168 0.883166,0.825891 1.381671,1.296112 1.497635,1.411369 L 73.196927,66.627096 52.744096,46.175681 c 5.032422,-6.759156 7.548279,-13.768626 7.548279,-21.027701 0,-6.259944 -1.96927,-11.358833 -5.904981,-15.295251 -3.937126,-3.9371257 -9.035307,-5.9049813 -15.295959,-5.9049813 -6.144688,0 -12.155733,1.8243146 -18.031723,5.4722363 -5.87599,3.64863 -10.639007,8.410939 -14.2876364,14.287636 -3.6486295,5.87599 -5.4729441,11.887036 -5.4729441,18.031724 0,6.260651 1.9678556,11.357419 5.9049814,15.295251 3.9371251,3.937833 9.0353071,5.906396 15.2952511,5.906396 7.259076,0 14.267838,-2.515858 21.027701,-7.548279 l 38.656379,38.657085 c 1.075497,1.07479 2.380094,1.612892 3.917327,1.612892 1.612892,0 3.169216,-0.750232 4.666144,-2.247867 1.498342,-1.498342 2.247867,-3.052545 2.247867,-4.666144 0,-1.537232 -0.538102,-2.843244 -1.612892,-3.918034 L 78.727853,72.156608 84.257365,66.626389 c 0.11455,0.115964 0.585477,0.615176 1.410661,1.498342 z M 46.004739,33.905397 c -2.150287,2.150288 -4.76231,3.225785 -7.834654,3.225785 -1.613599,0 -3.207399,-0.36557 -4.782108,-1.095296 0.729726,1.575416 1.094589,3.169216 1.094589,4.782108 0,3.073051 -1.07479,5.684366 -3.225784,7.834653 -2.150995,2.150288 -4.763017,3.225785 -7.835361,3.225785 -3.072344,0 -5.683659,-1.07479 -7.834653,-3.225785 -2.150287,-2.150287 -3.225784,-4.761602 -3.225784,-7.834653 0,-3.072344 1.07479,-5.684366 3.225784,-7.834654 2.150287,-2.150287 4.762309,-3.225784 7.834653,-3.225784 1.612892,0 3.206693,0.364863 4.781401,1.094589 -0.729725,-1.574709 -1.094588,-3.169216 -1.094588,-4.782108 0,-3.072344 1.07479,-5.684367 3.225784,-7.834653 2.150994,-2.150287 4.763017,-3.225785 7.83536,-3.225785 3.072344,0 5.684367,1.07479 7.834654,3.225785 2.150287,2.150993 3.225784,4.762309 3.225784,7.834653 0,3.072343 -1.075497,5.684366 -3.225077,7.83536 z"
     id="path3086"
     inkscape:connector-curvature="0"
     style="stroke:none;stroke-opacity:1;fill:#ffd205;fill-opacity:1" /></svg>