<?xml version="1.0" encoding="UTF-8" standalone="no"?>
<!-- Generator: Adobe Illustrator 16.0.4, SVG Export Plug-In . SVG Version: 6.00 Build 0)  -->

<svg
   xmlns:dc="http://purl.org/dc/elements/1.1/"
   xmlns:cc="http://creativecommons.org/ns#"
   xmlns:rdf="http://www.w3.org/1999/02/22-rdf-syntax-ns#"
   xmlns:svg="http://www.w3.org/2000/svg"
   xmlns="http://www.w3.org/2000/svg"
   xmlns:sodipodi="http://sodipodi.sourceforge.net/DTD/sodipodi-0.dtd"
   xmlns:inkscape="http://www.inkscape.org/namespaces/inkscape"
   version="1.1"
   id="Capa_1"
   x="0px"
   y="0px"
   width="100"
   height="100"
   viewBox="0 0 100 100"
   enable-background="new 0 0 216 146"
   xml:space="preserve"
   inkscape:version="0.48.4 r9939"
   sodipodi:docname="privado.svg"><metadata
     id="metadata3101"><rdf:RDF><cc:Work
         rdf:about=""><dc:format>image/svg+xml</dc:format><dc:type
           rdf:resource="http://purl.org/dc/dcmitype/StillImage" /></cc:Work></rdf:RDF></metadata><defs
     id="defs3099" /><sodipodi:namedview
     pagecolor="#ffffff"
     bordercolor="#666666"
     borderopacity="1"
     objecttolerance="10"
     gridtolerance="10"
     guidetolerance="10"
     inkscape:pageopacity="0"
     inkscape:pageshadow="2"
     inkscape:window-width="1325"
     inkscape:window-height="744"
     id="namedview3097"
     showgrid="false"
     inkscape:zoom="1.3518519"
     inkscape:cx="-28.109584"
     inkscape:cy="73"
     inkscape:window-x="41"
     inkscape:window-y="24"
     inkscape:window-maximized="1"
     inkscape:current-layer="Capa_1" /><path
     d="M 87.25203,48.826169 C 86.025267,47.599406 84.536375,46.986427 82.782935,46.986427 H 80.681872 V 34.368755 c 0,-8.060663 -2.891483,-14.98167 -8.673642,-20.764636 C 66.225265,7.8211534 59.304257,4.9296707 51.242787,4.9296707 c -8.06147,0 -14.983284,2.8914827 -20.765443,8.6744483 -5.782965,5.782966 -8.673641,12.703973 -8.673641,20.764636 v 12.617672 h -2.102677 c -1.751827,0 -3.241525,0.612979 -4.468288,1.839742 -1.226763,1.225956 -1.839741,2.715654 -1.839741,4.469094 V 91.14586 c 0,1.751828 0.612978,3.241526 1.839741,4.468289 1.226763,1.225956 2.716461,1.839741 4.468288,1.839741 h 63.083522 c 1.75344,0 3.242332,-0.612978 4.469095,-1.839741 1.225956,-1.226763 1.839741,-2.716461 1.839741,-4.468289 V 53.294457 C 89.094191,51.54263 88.479599,50.052931 87.25203,48.826169 z M 68.065006,46.986427 H 34.420569 V 34.368755 c 0,-4.64331 1.642942,-8.60831 4.928828,-11.89339 3.285886,-3.285885 7.25008,-4.928022 11.894197,-4.928022 4.644116,0 8.608311,1.642137 11.89339,4.928022 3.285079,3.28508 4.928022,7.25008 4.928022,11.89339 v 12.617672 z"
     id="path3095"
     inkscape:connector-curvature="0"
     style="fill:#aa0000" /></svg>