<?xml version="1.0" encoding="UTF-8" standalone="no"?>
<!-- Generator: Adobe Illustrator 16.0.4, SVG Export Plug-In . SVG Version: 6.00 Build 0)  -->

<svg
   xmlns:dc="http://purl.org/dc/elements/1.1/"
   xmlns:cc="http://creativecommons.org/ns#"
   xmlns:rdf="http://www.w3.org/1999/02/22-rdf-syntax-ns#"
   xmlns:svg="http://www.w3.org/2000/svg"
   xmlns="http://www.w3.org/2000/svg"
   xmlns:sodipodi="http://sodipodi.sourceforge.net/DTD/sodipodi-0.dtd"
   xmlns:inkscape="http://www.inkscape.org/namespaces/inkscape"
   version="1.1"
   id="Capa_1"
   x="0px"
   y="0px"
   width="100"
   height="100"
   viewBox="0 0 100 100"
   enable-background="new 0 0 216 146"
   xml:space="preserve"
   inkscape:version="0.48.4 r9939"
   sodipodi:docname="publico.svg"><metadata
     id="metadata3110"><rdf:RDF><cc:Work
         rdf:about=""><dc:format>image/svg+xml</dc:format><dc:type
           rdf:resource="http://purl.org/dc/dcmitype/StillImage" /></cc:Work></rdf:RDF></metadata><defs
     id="defs3108" /><sodipodi:namedview
     pagecolor="#ffffff"
     bordercolor="#666666"
     borderopacity="1"
     objecttolerance="10"
     gridtolerance="10"
     guidetolerance="10"
     inkscape:pageopacity="0"
     inkscape:pageshadow="2"
     inkscape:window-width="1325"
     inkscape:window-height="744"
     id="namedview3106"
     showgrid="false"
     inkscape:zoom="1.3518519"
     inkscape:cx="-28.109584"
     inkscape:cy="73"
     inkscape:window-x="41"
     inkscape:window-y="24"
     inkscape:window-maximized="1"
     inkscape:current-layer="Capa_1" /><path
     d="M 85.888246,52.148587 C 84.738871,50.999211 83.343902,50.424901 81.701074,50.424901 H 36.388779 V 30.723805 c 0,-4.351153 1.539301,-8.065275 4.617905,-11.143879 3.078603,-3.077847 6.792725,-4.617149 11.143879,-4.617149 4.351153,0 8.065275,1.539302 11.143123,4.617149 3.078603,3.078604 4.617905,6.792726 4.617905,11.143879 0,1.067007 0.389926,1.990437 1.169023,2.77029 0.780608,0.779852 1.704038,1.169778 2.770289,1.169778 h 3.94158 c 1.067007,0 1.990437,-0.389926 2.770289,-1.169778 0.778341,-0.779853 1.169779,-1.703283 1.169779,-2.77029 0,-7.593737 -2.699257,-14.087973 -8.096258,-19.48573 C 66.239291,5.8403176 59.7443,3.1418168 52.150563,3.1418168 c -7.593737,0 -14.088729,2.6985008 -19.486486,8.0962582 -5.397002,5.397002 -8.095503,11.891993 -8.095503,19.48573 v 19.701096 h -1.970033 c -1.641318,0 -3.037042,0.575066 -4.186417,1.723686 -1.149376,1.14862 -1.723686,2.544344 -1.723686,4.186417 v 35.46288 c 0,1.642073 0.57431,3.037797 1.723686,4.186417 1.149375,1.148619 2.545099,1.723685 4.186417,1.723685 h 59.102533 c 1.642828,0 3.038552,-0.575066 4.187172,-1.723685 1.14862,-1.14862 1.723685,-2.544344 1.723685,-4.186417 v -35.46288 c 7.56e-4,-1.642073 -0.573554,-3.037042 -1.723685,-4.186417 z"
     id="path3104"
     inkscape:connector-curvature="0"
     style="fill:#004b00;fill-opacity:1" /></svg>